<svg width="68" height="68" viewBox="0 0 68 68" fill="none" xmlns="http://www.w3.org/2000/svg">
<path fill-rule="evenodd" clip-rule="evenodd" d="M1.875 66.3379C1.875 66.9255 2.34994 67.4004 2.9375 67.4004C3.52506 67.4004 4 66.9255 4 66.3379L4 55.7129L16.4927 55.7129C21.6947 60.9691 28.907 64.232 36.8694 64.232C52.6879 64.232 65.5569 51.363 65.5569 35.5445C65.5569 19.726 52.6879 6.85701 36.8694 6.85701C28.9272 6.85701 21.7309 10.103 16.531 15.3347L4 15.3347L4.02063 6.91211C4.02063 6.91211 4.02063 5.91211 3.02063 5.91211C1.87495 5.91211 1.875 6.91211 1.875 6.91211L1.875 66.3379ZM8.18187 35.5445C8.18187 40.9781 9.70125 46.0633 12.3352 50.3983L13.7653 52.5233C14.0309 52.8845 14.3061 53.2394 14.5887 53.5879L4 53.5879L4 52.5233L4 50.3983L4 20.6483L4 18.5233L4 17.4586L14.6217 17.4586C14.338 17.8071 14.0628 18.162 13.7951 18.5233L12.3617 20.6483C9.71187 24.9928 8.18187 30.0939 8.18187 35.5445ZM63.4319 35.5445C63.4319 20.898 51.5159 8.98201 36.8694 8.98201C22.2228 8.98201 10.3069 20.898 10.3069 35.5445C10.3069 50.1911 22.2228 62.107 36.8694 62.107C51.5159 62.107 63.4319 50.1911 63.4319 35.5445Z" fill="url(#paint0_linear)"/>
<path d="M43.0769 20C41.0224 20 39.0772 20.6866 37.5 21.9521C35.9228 20.6866 33.9776 20 31.9231 20C27.0031 20 23 23.9876 23 28.8886C23 31.6096 24.266 34.1628 26.3919 35.8439L27.4649 48.9789C27.4705 49.0489 27.5006 49.1089 27.5195 49.1745C27.5363 49.2345 27.543 49.2945 27.5686 49.35C27.6032 49.4234 27.6545 49.4845 27.7036 49.5489C27.7382 49.5967 27.766 49.6478 27.8084 49.6889C27.872 49.7489 27.9478 49.7889 28.0226 49.8333C28.0683 49.8589 28.1062 49.8956 28.1553 49.9156C28.2858 49.9689 28.4275 50 28.5758 50H28.5769H30.8088C30.8122 50 30.8155 49.9978 30.82 49.9978C33.8895 49.9922 36.3857 47.5034 36.3857 44.4435V42.217C36.3857 41.6036 36.8854 41.1059 37.5 41.1059C38.1157 41.1059 38.6154 41.6036 38.6154 42.217V44.4435C38.6154 47.5034 41.1116 49.9922 44.1812 49.9978C44.1856 49.9978 44.1878 50 44.1923 50H46.4242H46.4253C46.5737 50 46.7153 49.9689 46.8458 49.9156C46.8949 49.8944 46.9328 49.8589 46.9785 49.8322C47.0533 49.7889 47.1302 49.7489 47.1916 49.6889C47.2351 49.6478 47.2618 49.5956 47.2987 49.5489C47.3466 49.4845 47.3979 49.4245 47.4325 49.35C47.457 49.2945 47.4648 49.2334 47.4816 49.1734C47.4994 49.1078 47.5307 49.0489 47.5362 48.9789L48.6092 35.8427C50.7352 34.1606 52 31.6073 52 28.8886C52 23.9876 47.9969 20 43.0769 20ZM46.9005 34.3617C46.877 34.3772 46.867 34.4017 46.8458 34.4195C46.8079 34.4484 46.78 34.4884 46.7477 34.5217C46.683 34.5895 46.6194 34.6539 46.5748 34.7328C46.5435 34.7872 46.5279 34.8483 46.5056 34.9083C46.48 34.9817 46.451 35.0517 46.4409 35.1272C46.4376 35.1483 46.4253 35.1639 46.4231 35.185L45.3947 47.7779H44.1968C44.1945 47.7779 44.1934 47.7768 44.1912 47.7768C42.3463 47.7768 40.845 46.2812 40.845 44.4435V42.217C40.845 40.3792 39.3437 38.8837 37.4989 38.8837C35.6552 38.8837 34.1538 40.3792 34.1538 42.217V44.4435C34.1538 46.2812 32.6525 47.7768 30.8077 47.7768C30.8055 47.7768 30.8043 47.7779 30.8021 47.7779H29.6042L28.5769 35.185C28.5758 35.1661 28.5635 35.1517 28.5613 35.1328C28.5502 35.0539 28.5223 34.9828 28.4955 34.9083C28.4721 34.8472 28.4587 34.7861 28.4252 34.7306C28.3851 34.6606 28.3271 34.6028 28.2702 34.5406C28.23 34.4972 28.1966 34.4517 28.1497 34.415C28.1308 34.3995 28.1218 34.3784 28.1007 34.3639C26.3049 33.1162 25.2308 31.0696 25.2308 28.8886C25.2308 25.212 28.2323 22.2221 31.9231 22.2221C33.7345 22.2221 35.4321 22.9343 36.7025 24.2276C37.123 24.6554 37.877 24.6554 38.2975 24.2276C39.569 22.9343 41.2655 22.2221 43.0769 22.2221C46.7677 22.2221 49.7692 25.212 49.7692 28.8886C49.7692 31.0663 48.6962 33.1128 46.9005 34.3617Z" fill="url(#paint1_linear)"/>
<defs>
<linearGradient id="paint0_linear" x1="60.1722" y1="67.2953" x2="58.9932" y2="5.5924" gradientUnits="userSpaceOnUse">
<stop offset="0.104167" stop-color="#0AB5DB"/>
<stop offset="1" stop-color="#0075FF"/>
</linearGradient>
<linearGradient id="paint1_linear" x1="23.0496" y1="47.4633" x2="52.1508" y2="46.9066" gradientUnits="userSpaceOnUse">
<stop offset="0.104167" stop-color="#0AB5DB"/>
<stop offset="1" stop-color="#0075FF"/>
</linearGradient>
</defs>
</svg>
