<svg width="67" height="105" viewBox="0 0 67 105" fill="none" xmlns="http://www.w3.org/2000/svg">
<g opacity="0.85">
<rect x="0.75" y="0.75" width="62.5" height="103.5" rx="1.42705" fill="white" stroke="url(#paint0_linear)" stroke-width="1.5"/>
<path d="M0 2.17705C0 0.974697 0.974697 0 2.17705 0H61.823C63.0253 0 64 0.974697 64 2.17705V8H0V2.17705Z" fill="url(#paint1_linear)"/>
<path fill-rule="evenodd" clip-rule="evenodd" d="M3.53774 4.8997C4.13892 4.8997 4.62627 4.41235 4.62627 3.81118C4.62627 3.21 4.13892 2.72266 3.53774 2.72266C2.93657 2.72266 2.44922 3.21 2.44922 3.81118C2.44922 4.41235 2.93657 4.8997 3.53774 4.8997Z" fill="#F2F2F2"/>
<path fill-rule="evenodd" clip-rule="evenodd" d="M65.5836 4.89775C66.1848 4.89775 66.6722 4.4104 66.6722 3.80923C66.6722 3.20805 66.1848 2.7207 65.5836 2.7207C64.9825 2.7207 64.4951 3.20805 64.4951 3.80923C64.4951 4.4104 64.9825 4.89775 65.5836 4.89775Z" fill="#F2F2F2"/>
<g clip-path="url(#clip0)">
<g clip-path="url(#clip1)">
<rect x="4.354" y="14" width="54.3399" height="12.7902" rx="1.08852" fill="url(#paint2_linear)"/>
<g clip-path="url(#clip2)">
<rect opacity="0.6" x="6.80322" y="17.8379" width="38.5563" height="1.91852" rx="0.816393" fill="#102F52"/>
<rect x="6.80322" y="21.0352" width="25.8803" height="1.91852" rx="0.816393" fill="#AAC2D6"/>
</g>
<path fill-rule="evenodd" clip-rule="evenodd" d="M53.194 22.301C54.246 22.301 55.0989 21.4482 55.0989 20.3961C55.0989 19.3441 54.246 18.4912 53.194 18.4912C52.1419 18.4912 51.2891 19.3441 51.2891 20.3961C51.2891 21.4482 52.1419 22.301 53.194 22.301Z" fill="url(#paint3_linear)"/>
<path fill-rule="evenodd" clip-rule="evenodd" d="M53.1938 21.2119C53.6447 21.2119 54.0102 20.8464 54.0102 20.3955C54.0102 19.9446 53.6447 19.5791 53.1938 19.5791C52.743 19.5791 52.3774 19.9446 52.3774 20.3955C52.3774 20.8464 52.743 21.2119 53.1938 21.2119Z" fill="#F2F2F2"/>
</g>
<g opacity="0.9" clip-path="url(#clip3)">
<rect x="4.354" y="31.79" width="54.3399" height="10.6131" rx="1.08852" fill="url(#paint4_linear)"/>
<g clip-path="url(#clip4)">
<rect opacity="0.6" x="6.80322" y="34.9736" width="38.5563" height="1.59197" rx="0.795983" fill="#102F52"/>
<rect x="6.80322" y="37.627" width="25.8803" height="1.59197" rx="0.795983" fill="#AAC2D6"/>
</g>
<path fill-rule="evenodd" clip-rule="evenodd" d="M53.194 39.0022C54.246 39.0022 55.0989 38.1494 55.0989 37.0973C55.0989 36.0452 54.246 35.1924 53.194 35.1924C52.1419 35.1924 51.2891 36.0452 51.2891 37.0973C51.2891 38.1494 52.1419 39.0022 53.194 39.0022Z" fill="url(#paint5_linear)"/>
<path fill-rule="evenodd" clip-rule="evenodd" d="M53.1938 37.914C53.6447 37.914 54.0102 37.5485 54.0102 37.0976C54.0102 36.6468 53.6447 36.2812 53.1938 36.2812C52.743 36.2812 52.3774 36.6468 52.3774 37.0976C52.3774 37.5485 52.743 37.914 53.1938 37.914Z" fill="#F2F2F2"/>
</g>
<g opacity="0.8" clip-path="url(#clip5)">
<rect x="4.354" y="47.4033" width="54.3399" height="10.6131" rx="1.08852" fill="url(#paint6_linear)"/>
<g clip-path="url(#clip6)">
<rect opacity="0.6" x="6.80322" y="50.5869" width="38.5563" height="1.59197" rx="0.795983" fill="#102F52"/>
<rect x="6.80322" y="53.2402" width="25.8803" height="1.59197" rx="0.795983" fill="#AAC2D6"/>
</g>
<path fill-rule="evenodd" clip-rule="evenodd" d="M53.194 54.6145C54.246 54.6145 55.0989 53.7617 55.0989 52.7096C55.0989 51.6575 54.246 50.8047 53.194 50.8047C52.1419 50.8047 51.2891 51.6575 51.2891 52.7096C51.2891 53.7617 52.1419 54.6145 53.194 54.6145Z" fill="#102F52"/>
<path fill-rule="evenodd" clip-rule="evenodd" d="M53.1938 53.5263C53.6447 53.5263 54.0102 53.1608 54.0102 52.7099C54.0102 52.2591 53.6447 51.8936 53.1938 51.8936C52.743 51.8936 52.3774 52.2591 52.3774 52.7099C52.3774 53.1608 52.743 53.5263 53.1938 53.5263Z" fill="white"/>
</g>
<g opacity="0.6" clip-path="url(#clip7)">
<rect x="4.354" y="78.6299" width="54.3399" height="10.6131" rx="1.08852" fill="url(#paint7_linear)"/>
<g clip-path="url(#clip8)">
<rect opacity="0.6" x="6.80322" y="81.8145" width="38.5563" height="1.59197" rx="0.795983" fill="#102F52"/>
<rect x="6.80322" y="84.4668" width="25.8803" height="1.59197" rx="0.795983" fill="#AAC2D6"/>
</g>
<path fill-rule="evenodd" clip-rule="evenodd" d="M53.194 85.8411C54.246 85.8411 55.0989 84.9882 55.0989 83.9362C55.0989 82.8841 54.246 82.0312 53.194 82.0312C52.1419 82.0312 51.2891 82.8841 51.2891 83.9362C51.2891 84.9882 52.1419 85.8411 53.194 85.8411Z" fill="#102F52"/>
<path fill-rule="evenodd" clip-rule="evenodd" d="M53.1938 84.7519C53.6447 84.7519 54.0102 84.3864 54.0102 83.9355C54.0102 83.4847 53.6447 83.1191 53.1938 83.1191C52.743 83.1191 52.3774 83.4847 52.3774 83.9355C52.3774 84.3864 52.743 84.7519 53.1938 84.7519Z" fill="#F2F2F2"/>
</g>
<g opacity="0.7" clip-path="url(#clip9)">
<rect x="4.354" y="63.0166" width="54.3399" height="10.6131" rx="1.08852" fill="url(#paint8_linear)"/>
<g clip-path="url(#clip10)">
<rect opacity="0.6" x="6.80322" y="66.2002" width="38.5563" height="1.59197" rx="0.795983" fill="#102F52"/>
<rect x="6.80322" y="68.8535" width="25.8803" height="1.59197" rx="0.795983" fill="#AAC2D6"/>
</g>
<path fill-rule="evenodd" clip-rule="evenodd" d="M53.194 70.2288C54.246 70.2288 55.0989 69.3759 55.0989 68.3239C55.0989 67.2718 54.246 66.4189 53.194 66.4189C52.1419 66.4189 51.2891 67.2718 51.2891 68.3239C51.2891 69.3759 52.1419 70.2288 53.194 70.2288Z" fill="#102F52"/>
<path fill-rule="evenodd" clip-rule="evenodd" d="M53.1938 69.1406C53.6447 69.1406 54.0102 68.7751 54.0102 68.3242C54.0102 67.8733 53.6447 67.5078 53.1938 67.5078C52.743 67.5078 52.3774 67.8733 52.3774 68.3242C52.3774 68.7751 52.743 69.1406 53.1938 69.1406Z" fill="#F2F2F2"/>
</g>
</g>
</g>
<defs>
<linearGradient id="paint0_linear" x1="0.109402" y1="96.1217" x2="64.3469" y2="95.3468" gradientUnits="userSpaceOnUse">
<stop offset="0.104167" stop-color="#0AB5DB"/>
<stop offset="1" stop-color="#0075FF"/>
</linearGradient>
<linearGradient id="paint1_linear" x1="0.109402" y1="7.32356" x2="62.7852" y2="-2.59954" gradientUnits="userSpaceOnUse">
<stop offset="0.104167" stop-color="#0AB5DB"/>
<stop offset="1" stop-color="#0075FF"/>
</linearGradient>
<linearGradient id="paint2_linear" x1="1.98634" y1="13.388" x2="25.4774" y2="48.0243" gradientUnits="userSpaceOnUse">
<stop stop-color="#F3F7FB"/>
<stop offset="1" stop-color="#DEE8F4"/>
</linearGradient>
<linearGradient id="paint3_linear" x1="51.2956" y1="21.9789" x2="55.1186" y2="21.9032" gradientUnits="userSpaceOnUse">
<stop stop-color="#FFAF22"/>
<stop offset="1" stop-color="#FE8E68"/>
</linearGradient>
<linearGradient id="paint4_linear" x1="1.98634" y1="31.2822" x2="19.9209" y2="63.15" gradientUnits="userSpaceOnUse">
<stop stop-color="#F3F7FB"/>
<stop offset="1" stop-color="#DEE8F4"/>
</linearGradient>
<linearGradient id="paint5_linear" x1="51.2956" y1="38.6801" x2="55.1186" y2="38.6044" gradientUnits="userSpaceOnUse">
<stop offset="0.104167" stop-color="#0AB5DB"/>
<stop offset="1" stop-color="#0075FF"/>
</linearGradient>
<linearGradient id="paint6_linear" x1="1.98634" y1="46.8955" x2="19.9209" y2="78.7633" gradientUnits="userSpaceOnUse">
<stop stop-color="#F3F7FB"/>
<stop offset="1" stop-color="#DEE8F4"/>
</linearGradient>
<linearGradient id="paint7_linear" x1="1.98634" y1="78.1221" x2="19.9209" y2="109.99" gradientUnits="userSpaceOnUse">
<stop stop-color="#F3F7FB"/>
<stop offset="1" stop-color="#DEE8F4"/>
</linearGradient>
<linearGradient id="paint8_linear" x1="1.98634" y1="62.5088" x2="19.9209" y2="94.3766" gradientUnits="userSpaceOnUse">
<stop stop-color="#F3F7FB"/>
<stop offset="1" stop-color="#DEE8F4"/>
</linearGradient>
<clipPath id="clip0">
<rect width="54.3399" height="76.7409" fill="white" transform="translate(4.354 11.9736)"/>
</clipPath>
<clipPath id="clip1">
<rect width="54.3399" height="12.7902" fill="white" transform="translate(4.354 14)"/>
</clipPath>
<clipPath id="clip2">
<rect width="38.5563" height="5.11606" fill="white" transform="translate(6.80322 17.8379)"/>
</clipPath>
<clipPath id="clip3">
<rect width="54.3399" height="10.6131" fill="white" transform="translate(4.354 31.79)"/>
</clipPath>
<clipPath id="clip4">
<rect width="38.5563" height="4.24524" fill="white" transform="translate(6.80322 34.9736)"/>
</clipPath>
<clipPath id="clip5">
<rect width="54.3399" height="10.6131" fill="white" transform="translate(4.354 47.4033)"/>
</clipPath>
<clipPath id="clip6">
<rect width="38.5563" height="4.24524" fill="white" transform="translate(6.80322 50.5869)"/>
</clipPath>
<clipPath id="clip7">
<rect width="54.3399" height="10.6131" fill="white" transform="translate(4.354 78.6299)"/>
</clipPath>
<clipPath id="clip8">
<rect width="38.5563" height="4.24524" fill="white" transform="translate(6.80322 81.8145)"/>
</clipPath>
<clipPath id="clip9">
<rect width="54.3399" height="10.6131" fill="white" transform="translate(4.354 63.0166)"/>
</clipPath>
<clipPath id="clip10">
<rect width="38.5563" height="4.24524" fill="white" transform="translate(6.80322 66.2002)"/>
</clipPath>
</defs>
</svg>
