<svg width="68" height="68" viewBox="0 0 68 68" fill="none" xmlns="http://www.w3.org/2000/svg">
<g clip-path="url(#clip0)">
<path d="M62.2978 31.7245V31.9245H62.4978H63.1681C65.722 31.9245 67.8 34.0026 67.8002 36.5564V43.7152C67.8002 46.2691 65.7222 48.3471 63.1683 48.3471H57.1947H56.9947V48.5471V53.0942C56.9947 53.8183 56.4077 54.4053 55.6836 54.4053C54.9595 54.4053 54.3725 53.8183 54.3725 53.0942V48.5471V48.3471H54.1725H13.8277H13.6277V48.5471V53.0942C13.6277 53.8183 13.0407 54.4053 12.3166 54.4053C11.5925 54.4053 11.0055 53.8183 11.0055 53.0942V48.5471V48.3471H10.8055H4.83189C2.27804 48.3471 0.2 46.2691 0.2 43.7152V36.5564C0.2 34.0026 2.27804 31.9245 4.83167 31.9245H5.50217H5.70217V31.7245V20.6455C5.70217 16.8709 8.77345 13.7996 12.5478 13.7996H55.4522C59.2266 13.7996 62.2978 16.8709 62.2978 20.6455V31.7245ZM59.4756 31.9245H59.6756V31.7245V20.6455C59.6756 18.3163 57.7812 16.4218 55.4522 16.4218H12.5478C10.2186 16.4218 8.32439 18.3165 8.32439 20.6455V31.7245V31.9245H8.52439H10.4616H10.6616V31.7245V28.69C10.6616 26.8654 12.1463 25.3808 13.9707 25.3808H29.4602C31.2851 25.3808 32.7699 26.8654 32.7699 28.69V31.7245V31.9245H32.9699H35.0299H35.2299V31.7245V28.69C35.2299 26.8654 36.7147 25.3808 38.5396 25.3808H54.0294C55.8538 25.3808 57.3384 26.8654 57.3384 28.69V31.7245V31.9245H57.5384H59.4756ZM37.8522 31.7245V31.9245H38.0522H54.5161H54.7161V31.7245V28.69C54.7161 28.3156 54.4039 28.003 54.0294 28.003H38.5396C38.1651 28.003 37.8522 28.3154 37.8522 28.69V31.7245ZM13.2839 31.7245V31.9245H13.4839H29.9479H30.1479V31.7245V28.69C30.1479 28.3154 29.8349 28.003 29.4604 28.003H13.9707C13.5961 28.003 13.2839 28.3156 13.2839 28.69V31.7245ZM63.1681 45.7249C64.2763 45.7249 65.1778 44.8234 65.1778 43.7152V36.5564C65.1778 35.4482 64.2763 34.5468 63.1681 34.5468H4.83189C3.72366 34.5468 2.82222 35.4482 2.82222 36.5564V43.7152C2.82222 44.8234 3.72366 45.7249 4.83189 45.7249H63.1681Z" fill="url(#paint0_linear)" stroke="white" stroke-width="0.4"/>
</g>
<defs>
<linearGradient id="paint0_linear" x1="0.11624" y1="51.1381" x2="68.3053" y2="48.9002" gradientUnits="userSpaceOnUse">
<stop offset="0.104167" stop-color="#0AB5DB"/>
<stop offset="1" stop-color="#0075FF"/>
</linearGradient>
<clipPath id="clip0">
<rect width="68" height="68" fill="white"/>
</clipPath>
</defs>
</svg>
