<svg width="68" height="68" viewBox="0 0 68 68" fill="none" xmlns="http://www.w3.org/2000/svg">
<g clip-path="url(#clip0)">
<path fill-rule="evenodd" clip-rule="evenodd" d="M26.7917 57H66.2081C67.1971 57 67.9998 57.448 68 58C68 58.552 67.1973 59 66.2083 59H26.7917C25.8027 59 25 58.552 25 58C25 57.448 25.8027 57 26.7917 57Z" fill="url(#paint0_linear)"/>
<path d="M62.1832 33.0492C65.62 37.9946 61.9718 39.0127 61.3359 39.264C56.5851 41.1408 44.5041 37.2759 33.3913 32.7784M62.1832 33.0492C57.8872 26.8676 48.7125 22.1141 45.2941 21.021M62.1832 33.0492C59.9173 35.1728 55.1936 34.3718 53.1151 33.7059M45.2941 21.021L57.6269 12.1119C58.3384 11.5979 58.0898 10.482 57.2273 10.3187L49.9295 8.93738C49.3689 8.83127 48.7896 8.88722 48.2597 9.09868L29.3858 16.6298M45.2941 21.021C41.8757 19.9279 34.2205 17.5778 29.3858 16.6298M29.3858 16.6298L18.3176 14.6924L14.4002 4.19004L10.5595 3.8535L8.75324 13.4519C3.07598 11.9868 0.403053 11.2014 1.38698 13.2227C2.70967 16.725 5.57975 19.5063 6.03171 19.7614C7.1795 20.4094 16.3111 24.9424 19.9117 26.6469M22.6053 22.5024L19.9117 26.6469M38.5565 28.8568L33.3913 32.7784M19.9117 26.6469L12.3607 37.6196C11.27 39.2045 11.9321 41.3918 13.7185 42.1059L16.312 43.1426C17.6049 43.6595 19.0737 43.4667 20.1895 42.6337L33.3913 32.7784" stroke="url(#paint1_linear)" stroke-width="2"/>
</g>
<defs>
<linearGradient id="paint0_linear" x1="25.0735" y1="58.8309" x2="61.6223" y2="43.2795" gradientUnits="userSpaceOnUse">
<stop offset="0.104167" stop-color="#0AB5DB"/>
<stop offset="1" stop-color="#0075FF"/>
</linearGradient>
<linearGradient id="paint1_linear" x1="-1.01795" y1="38.9393" x2="63.4265" y2="42.4877" gradientUnits="userSpaceOnUse">
<stop offset="0.104167" stop-color="#0AB5DB"/>
<stop offset="1" stop-color="#0075FF"/>
</linearGradient>
<clipPath id="clip0">
<rect width="68" height="68" fill="white"/>
</clipPath>
</defs>
</svg>
