<svg width="45" height="44" viewBox="0 0 45 44" fill="none" xmlns="http://www.w3.org/2000/svg">
<ellipse cx="22.4071" cy="22" rx="21.9847" ry="22" fill="url(#paint0_linear)"/>
<path d="M13.23 22.6874L18.8193 28.2807L31.5837 15.8887" stroke="white" stroke-width="3.68293" stroke-linecap="round"/>
<ellipse cx="22.4071" cy="22" rx="21.9847" ry="22" fill="url(#paint1_linear)"/>
<path fill-rule="evenodd" clip-rule="evenodd" d="M13.2163 20.43C13.2163 28.825 22.407 34 22.407 34C22.407 34 31.5977 28.825 31.5977 20.43C31.6284 19.2026 31.4133 17.9815 30.9652 16.8386C30.5171 15.6958 29.8449 14.6542 28.9884 13.7754C28.1319 12.8966 27.1083 12.1983 25.978 11.7216C24.8477 11.245 23.6335 10.9996 22.407 11C21.1805 10.9996 19.9663 11.245 18.836 11.7216C17.7056 12.1983 16.6821 12.8966 15.8256 13.7754C14.969 14.6542 14.2969 15.6958 13.8488 16.8386C13.4007 17.9815 13.1856 19.2026 13.2163 20.43ZM26.0844 20.2C26.0844 22.2324 24.438 23.88 22.407 23.88C20.376 23.88 18.7295 22.2324 18.7295 20.2C18.7295 18.1676 20.376 16.52 22.407 16.52C24.438 16.52 26.0844 18.1676 26.0844 20.2Z" fill="white"/>
<defs>
<linearGradient id="paint0_linear" x1="0.497525" y1="40.2796" x2="44.6193" y2="39.407" gradientUnits="userSpaceOnUse">
<stop stop-color="#FFAF22"/>
<stop offset="1" stop-color="#FE8E68"/>
</linearGradient>
<linearGradient id="paint1_linear" x1="0.497525" y1="40.2796" x2="44.6193" y2="39.407" gradientUnits="userSpaceOnUse">
<stop stop-color="#FFAF22"/>
<stop offset="1" stop-color="#FE8E68"/>
</linearGradient>
</defs>
</svg>
