<svg width="44" height="44" viewBox="0 0 44 44" fill="none" xmlns="http://www.w3.org/2000/svg">
<circle cx="22" cy="22" r="22" fill="url(#paint0_linear)"/>
<path d="M22.0321 11.4446C22.0742 11.3151 22.2574 11.3151 22.2994 11.4446L24.5846 18.4777C24.6034 18.5356 24.6574 18.5748 24.7183 18.5748H32.1133C32.2494 18.5748 32.306 18.749 32.1959 18.8291L26.2132 23.1757C26.164 23.2115 26.1434 23.275 26.1622 23.3329L28.4473 30.3659C28.4894 30.4954 28.3412 30.6031 28.231 30.5231L22.2484 26.1764C22.1991 26.1406 22.1324 26.1406 22.0831 26.1764L16.1005 30.5231C15.9903 30.6031 15.8421 30.4954 15.8842 30.3659L18.1694 23.3329C18.1882 23.275 18.1676 23.2115 18.1183 23.1757L12.1356 18.8291C12.0255 18.749 12.0821 18.5748 12.2183 18.5748H19.6132C19.6741 18.5748 19.7281 18.5356 19.7469 18.4777L22.0321 11.4446Z" fill="white" stroke="white" stroke-width="2.6068"/>
<defs>
<linearGradient id="paint0_linear" x1="0.0752139" y1="40.2796" x2="44.2276" y2="39.4058" gradientUnits="userSpaceOnUse">
<stop offset="0.104167" stop-color="#0AB5DB"/>
<stop offset="1" stop-color="#0075FF"/>
</linearGradient>
</defs>
</svg>
