<svg  viewBox="0 0 18 18"  xmlns="http://www.w3.org/2000/svg">
<path d="M10.1749 8.99983L17.0832 2.0915C17.2197 1.93208 17.2911 1.72701 17.283 1.51728C17.2749 1.30755 17.1879 1.10861 17.0395 0.960193C16.8911 0.811781 16.6922 0.724837 16.4824 0.716736C16.2727 0.708635 16.0676 0.779974 15.9082 0.916496L8.9999 7.82483L2.09156 0.908162C1.93464 0.751243 1.72181 0.663086 1.4999 0.663086C1.27798 0.663086 1.06515 0.751243 0.90823 0.908162C0.75131 1.06508 0.663153 1.27791 0.663153 1.49983C0.663153 1.72175 0.75131 1.93458 0.90823 2.0915L7.8249 8.99983L0.90823 15.9082C0.820995 15.9829 0.750145 16.0748 0.700125 16.1782C0.650106 16.2816 0.621997 16.3942 0.617564 16.509C0.613131 16.6237 0.632469 16.7382 0.674365 16.8451C0.71626 16.952 0.779809 17.0492 0.861021 17.1304C0.942233 17.2116 1.03936 17.2751 1.14629 17.317C1.25323 17.3589 1.36767 17.3783 1.48244 17.3738C1.59721 17.3694 1.70982 17.3413 1.8132 17.2913C1.91659 17.2412 2.00852 17.1704 2.08323 17.0832L8.9999 10.1748L15.9082 17.0832C16.0676 17.2197 16.2727 17.291 16.4824 17.2829C16.6922 17.2748 16.8911 17.1879 17.0395 17.0395C17.1879 16.8911 17.2749 16.6921 17.283 16.4824C17.2911 16.2726 17.2197 16.0676 17.0832 15.9082L10.1749 8.99983Z" />
</svg>
