<svg width="17" height="16" viewBox="0 0 17 16" fill="none" xmlns="http://www.w3.org/2000/svg">
<circle cx="8.02344" cy="8" r="8" fill="url(#paint0_linear)"/>
<path d="M7.64301 3.17082C7.76276 2.8023 8.28412 2.8023 8.40386 3.17082L9.28072 5.8695C9.33427 6.03431 9.48785 6.1459 9.66114 6.1459H12.4987C12.8862 6.1459 13.0473 6.64174 12.7338 6.8695L10.4382 8.53738C10.298 8.63924 10.2393 8.81979 10.2929 8.9846L11.1697 11.6833C11.2895 12.0518 10.8677 12.3583 10.5542 12.1305L8.25855 10.4626C8.11836 10.3608 7.92852 10.3608 7.78832 10.4626L5.49269 12.1305C5.1792 12.3583 4.75741 12.0518 4.87715 11.6833L5.754 8.9846C5.80755 8.81979 5.74889 8.63924 5.6087 8.53738L3.31306 6.8695C2.99957 6.64174 3.16068 6.1459 3.54817 6.1459H6.38574C6.55903 6.1459 6.71261 6.03431 6.76616 5.8695L7.64301 3.17082Z" fill="white"/>
<defs>
<linearGradient id="paint0_linear" x1="0.050788" y1="14.6471" x2="16.1062" y2="14.3294" gradientUnits="userSpaceOnUse">
<stop stop-color="#FFAF22"/>
<stop offset="1" stop-color="#FE8E68"/>
</linearGradient>
</defs>
</svg>
