<svg width="16" height="16" viewBox="0 0 16 16" fill="none" xmlns="http://www.w3.org/2000/svg">
<circle cx="8" cy="8" r="8" fill="url(#paint0_linear)"/>
<path d="M6.506 9.458C6.506 8.97267 6.65533 8.51067 6.954 8.072C7.15 7.792 7.46267 7.44667 7.892 7.036C8.10667 6.83067 8.27 6.66733 8.382 6.546C8.494 6.42467 8.59667 6.27067 8.69 6.084C8.79267 5.89733 8.844 5.71533 8.844 5.538C8.844 4.84733 8.48467 4.502 7.766 4.502C7.374 4.502 7.05667 4.63267 6.814 4.894C6.57133 5.146 6.42667 5.496 6.38 5.944H4.434C4.47133 4.992 4.812 4.23133 5.456 3.662C6.08133 3.12067 6.89333 2.85 7.892 2.85C8.9 2.85 9.67467 3.08333 10.216 3.55C10.7387 3.998 11 4.60467 11 5.37C11 6.10733 10.6173 6.84 9.852 7.568C9.28267 8.10933 8.96533 8.422 8.9 8.506C8.592 8.86067 8.41933 9.20133 8.382 9.528V9.878H6.506V9.458ZM7.43 13.126C7.05667 13.126 6.75333 13.0093 6.52 12.776C6.268 12.5427 6.142 12.258 6.142 11.922C6.142 11.5767 6.268 11.2873 6.52 11.054C6.75333 10.8207 7.05667 10.704 7.43 10.704C7.78467 10.704 8.08333 10.8207 8.326 11.054C8.578 11.2873 8.704 11.5767 8.704 11.922C8.704 12.2487 8.58267 12.5333 8.34 12.776C8.088 13.0093 7.78467 13.126 7.43 13.126Z" fill="white"/>
<defs>
<linearGradient id="paint0_linear" x1="0.0273505" y1="14.6471" x2="16.0828" y2="14.3294" gradientUnits="userSpaceOnUse">
<stop stop-color="#FF3DA6"/>
<stop offset="1" stop-color="#FF3D57"/>
</linearGradient>
</defs>
</svg>
