<svg width="55" height="54" viewBox="0 0 55 54" xmlns="http://www.w3.org/2000/svg">
<g clip-path="url(#clip0)">
<path d="M27.4015 4.94256C34.5674 4.94256 35.4172 4.96942 38.2487 5.09923C45.5219 5.43047 48.9192 8.88385 49.2502 16.1084C49.38 18.9396 49.4046 19.7901 49.4046 26.9609C49.4046 34.134 49.3777 34.9823 49.2502 37.8135C48.917 45.0313 45.5286 48.4914 38.2487 48.8227C35.4172 48.9525 34.5718 48.9793 27.4015 48.9793C20.2356 48.9793 19.3857 48.9525 16.5565 48.8227C9.26537 48.4892 5.88596 45.0201 5.55495 37.8112C5.42523 34.98 5.39839 34.1318 5.39839 26.9587C5.39839 19.7878 5.42747 18.9396 5.55495 16.1062C5.88819 8.88385 9.27655 5.42823 16.5565 5.09699C19.388 4.96942 20.2356 4.94256 27.4015 4.94256ZM27.4015 0.101563C20.1126 0.101563 19.2001 0.132896 16.3373 0.262705C6.59047 0.710324 1.17356 6.12204 0.726256 15.8846C0.5943 18.7516 0.562988 19.6648 0.562988 26.9587C0.562988 34.2527 0.5943 35.168 0.724019 38.0328C1.17133 47.7864 6.57928 53.2071 16.3351 53.6547C19.2001 53.7845 20.1126 53.8158 27.4015 53.8158C34.6904 53.8158 35.6051 53.7845 38.4679 53.6547C48.2058 53.2071 53.6361 47.7954 54.0767 38.0328C54.2087 35.168 54.24 34.2527 54.24 26.9587C54.24 19.6648 54.2087 18.7516 54.0789 15.8868C53.6406 6.14218 48.2259 0.712563 38.4701 0.264943C35.6051 0.132896 34.6904 0.101562 27.4015 0.101562V0.101563ZM27.4015 13.1676C19.7905 13.1676 13.6199 19.3425 13.6199 26.9587C13.6199 34.5749 19.7905 40.7521 27.4015 40.7521C35.0124 40.7521 41.183 34.5772 41.183 26.9587C41.183 19.3425 35.0124 13.1676 27.4015 13.1676ZM27.4015 35.9111C22.461 35.9111 18.4553 31.9049 18.4553 26.9587C18.4553 22.0148 22.461 18.0063 27.4015 18.0063C32.342 18.0063 36.3476 22.0148 36.3476 26.9587C36.3476 31.9049 32.342 35.9111 27.4015 35.9111ZM41.7288 9.40085C39.9485 9.40085 38.5059 10.8444 38.5059 12.6237C38.5059 14.403 39.9485 15.8466 41.7288 15.8466C43.5068 15.8466 44.9471 14.403 44.9471 12.6237C44.9471 10.8444 43.5068 9.40085 41.7288 9.40085Z" fill="currentColor"/>
</g>
<defs>
<clipPath id="clip0">
<rect width="53.677" height="53.7143" fill="white" transform="translate(0.562988 0.101562)"/>
</clipPath>
</defs>
</svg>
