<svg width="143" height="26" viewBox="0 0 143 26" fill="none" xmlns="http://www.w3.org/2000/svg">
<path fill-rule="evenodd" clip-rule="evenodd" d="M5.40832 0C3.78301 0 2.54335 0.791672 1.70539 2.13624C0.867742 3.48032 0.431465 5.37676 0.410918 7.58772C0.369822 12.0098 1.99169 17.6939 5.39924 22.745L5.40881 22.7399L5.41845 22.7346C2.30813 15.2053 1.7722 10.1307 2.3303 6.93935C2.88852 3.74734 4.53994 2.44254 5.80263 2.44254C6.27139 2.44254 6.75991 2.59246 7.27796 2.81815C7.66859 2.98832 8.07527 3.20123 8.50247 3.42487C8.64191 3.49786 8.78353 3.57201 8.92749 3.64618C10.0969 4.24869 11.4188 4.85225 12.966 4.85225C14.5132 4.85225 15.857 4.24871 17.0483 3.64622C17.195 3.57205 17.3393 3.49791 17.4814 3.42492C17.9167 3.20127 18.3311 2.98836 18.728 2.81817C19.2543 2.59247 19.7483 2.44254 20.2171 2.44254C21.1562 2.44254 22.018 2.77 22.6454 3.60196C23.2732 4.43445 23.6673 5.77346 23.6673 7.79866L23.6882 7.80329C24.2534 6.59064 24.4902 4.64104 24.0341 2.99414C23.806 2.17049 23.4044 1.42188 22.7832 0.879129C22.1618 0.336237 21.3213 0 20.2171 0C18.9081 0 17.8777 0.569985 16.8187 1.1558L16.7177 1.21168C15.6224 1.81684 14.4854 2.42064 12.966 2.42064C11.4465 2.42064 10.2329 1.81675 9.06077 1.21154L8.95261 1.15565C7.81945 0.569856 6.7171 0 5.40832 0ZM34.8262 5.12067C33.4292 5.12067 32.0728 5.42931 30.757 6.04658L29.8799 4.29223C31.2768 3.60998 32.9337 3.26885 34.8505 3.26885C36.613 3.26885 38.1278 3.62622 39.3948 4.34096C40.67 5.0557 41.6365 6.07501 42.2944 7.3989C42.9522 8.72278 43.2812 10.2822 43.2812 12.0772C43.2812 15.1311 42.5421 17.4783 41.0639 19.119C39.5857 20.7596 37.4577 21.5799 34.68 21.5799C32.8363 21.5799 31.2809 21.3485 30.0139 20.8855V19.0702C30.688 19.2408 31.3743 19.3951 32.0728 19.5332C32.7713 19.6713 33.5226 19.7403 34.3267 19.7403C36.5277 19.7403 38.1887 19.1555 39.3095 17.9859C40.4304 16.8083 41.0233 15.1148 41.0882 12.9056H32.3287V11.0538H41.0639C40.8852 9.19386 40.2436 7.74002 39.139 6.69228C38.0425 5.64454 36.6049 5.12067 34.8262 5.12067ZM52.0837 21.5799C50.1506 21.5799 48.6521 20.987 47.5881 19.8012C46.5323 18.6073 46.0043 16.922 46.0043 14.7453C46.0043 12.5117 46.5404 10.7858 47.6125 9.56748C48.6927 8.34917 50.2278 7.74002 52.2177 7.74002C52.8593 7.74002 53.501 7.80906 54.1426 7.94713C54.7842 8.08521 55.2878 8.24765 55.6533 8.43445L55.032 10.1523C54.5852 9.97358 54.0979 9.82738 53.57 9.71367C53.0421 9.59184 52.575 9.53093 52.1689 9.53093C49.4562 9.53093 48.0998 11.2609 48.0998 14.7209C48.0998 16.3615 48.4288 17.6205 49.0866 18.4976C49.7526 19.3748 50.7354 19.8134 52.0349 19.8134C53.1476 19.8134 54.2888 19.5738 55.4584 19.0946V20.8855C54.5649 21.3485 53.44 21.5799 52.0837 21.5799ZM58.3886 21.3363H60.411V9.73804H67.5502V21.3363H69.597V7.98368H58.3886V21.3363ZM81.8473 21.3363L81.4452 19.4357H81.3478C80.6818 20.2723 80.0158 20.8408 79.3497 21.1413C78.6919 21.4337 77.8675 21.5799 76.8766 21.5799C75.5527 21.5799 74.5131 21.2388 73.7577 20.5566C73.0105 19.8743 72.6369 18.9037 72.6369 17.6448C72.6369 14.9483 74.7933 13.5351 79.1061 13.4051L81.3721 13.332V12.5036C81.3721 11.4558 81.1447 10.6843 80.6899 10.1888C80.2432 9.68524 79.5244 9.43346 78.5335 9.43346C77.4208 9.43346 76.1619 9.77459 74.7568 10.4568L74.1354 8.90959C74.7933 8.55222 75.5121 8.27201 76.2918 8.06896C77.0796 7.86591 77.8675 7.76439 78.6553 7.76439C80.2472 7.76439 81.4249 8.11769 82.1884 8.82431C82.96 9.53093 83.3458 10.6639 83.3458 12.2234V21.3363H81.8473ZM77.2786 19.9109C78.5375 19.9109 79.5244 19.5657 80.2391 18.8753C80.962 18.1849 81.3234 17.2184 81.3234 15.9757V14.7696L79.301 14.8549C77.6929 14.9118 76.5314 15.1635 75.8167 15.6103C75.1101 16.0488 74.7568 16.7352 74.7568 17.6692C74.7568 18.4002 74.976 18.9565 75.4146 19.3383C75.8613 19.72 76.4827 19.9109 77.2786 19.9109ZM99.653 25.978H101.627V19.4601H99.3728V3.5247H91.3685C91.2711 6.01815 90.7756 8.77152 89.8822 11.7848C88.9969 14.7981 87.9289 17.3565 86.6781 19.4601H85.3014V25.978H87.275V21.3363H99.653V25.978ZM97.3017 5.3887V19.4601H88.8467C89.9594 17.5595 90.934 15.2326 91.7706 12.4792C92.6071 9.71773 93.0985 7.35423 93.2447 5.3887H97.3017ZM109.723 21.5799C107.749 21.5799 106.189 20.9789 105.044 19.7768C103.907 18.5748 103.339 16.9057 103.339 14.7696C103.339 12.6173 103.867 10.9076 104.922 9.64057C105.986 8.37354 107.412 7.74002 109.199 7.74002C110.872 7.74002 112.196 8.29232 113.17 9.39691C114.145 10.4934 114.632 11.9432 114.632 13.7463V15.0255H105.434C105.475 16.593 105.869 17.7829 106.616 18.5951C107.371 19.4073 108.431 19.8134 109.796 19.8134C111.233 19.8134 112.655 19.5129 114.06 18.9119V20.7149C113.345 21.0236 112.667 21.2429 112.025 21.3728C111.392 21.5109 110.624 21.5799 109.723 21.5799ZM109.174 9.43346C108.102 9.43346 107.245 9.78271 106.604 10.4812C105.97 11.1797 105.597 12.1462 105.483 13.3808H112.464C112.464 12.1056 112.179 11.131 111.611 10.4568C111.042 9.77459 110.23 9.43346 109.174 9.43346ZM119.865 13.5757V7.98368H117.843V21.3363H119.865V15.3179H127.345V21.3363H129.368V7.98368H127.345V13.5757H119.865ZM142.41 9.71367H138.073V21.3363H136.051V9.71367H131.762V7.98368H142.41V9.71367Z" fill="white"/>
</svg>
