<svg width="19" height="23" viewBox="0 0 19 23" fill="none" xmlns="http://www.w3.org/2000/svg">
<path fill-rule="evenodd" clip-rule="evenodd" d="M0.216252 9.43C0.216252 17.825 9.40699 23 9.40699 23C9.40699 23 18.5977 17.825 18.5977 9.43C18.6284 8.20262 18.4133 6.98152 17.9652 5.83864C17.5171 4.69576 16.8449 3.65423 15.9884 2.77542C15.1319 1.89661 14.1083 1.1983 12.978 0.721644C11.8477 0.244985 10.6335 -0.000382392 9.40699 4.47308e-07C8.18047 -0.000382392 6.96627 0.244985 5.83595 0.721644C4.70564 1.1983 3.68206 1.89661 2.82555 2.77542C1.96904 3.65423 1.29692 4.69576 0.848788 5.83864C0.400658 6.98152 0.185588 8.20262 0.216252 9.43ZM13.0844 9.2C13.0844 11.2324 11.438 12.88 9.40699 12.88C7.37599 12.88 5.72955 11.2324 5.72955 9.2C5.72955 7.16759 7.37599 5.52 9.40699 5.52C11.438 5.52 13.0844 7.16759 13.0844 9.2Z" fill="white"/>
</svg>
