<svg width="57" height="56" viewBox="0 0 57 56" xmlns="http://www.w3.org/2000/svg">
<path opacity="0.9" d="M49.3383 28.4143C49.3383 39.4094 40.4311 48.3228 29.4437 48.3228C18.4562 48.3228 9.54907 39.4094 9.54907 28.4143C9.54907 17.4192 18.4562 8.50586 29.4437 8.50586C40.4311 8.50586 49.3383 17.4192 49.3383 28.4143Z" fill="currentColor"/>
<path opacity="0.9" d="M56.3209 28C56.3209 43.1882 44.0171 55.5 28.8404 55.5C13.6636 55.5 1.35986 43.1882 1.35986 28C1.35986 12.8118 13.6636 0.5 28.8404 0.5C44.0171 0.5 56.3209 12.8118 56.3209 28Z" fill="none" stroke="currentColor"/>
<path d="M38.9194 28.4147L24.7091 36.6247L24.7091 20.2047L38.9194 28.4147Z" fill="white"/>
</svg>
