<svg width="53" height="38" viewBox="0 0 53 38" fill="none" xmlns="http://www.w3.org/2000/svg">
<path d="M32.1385 37.7427L30.4385 30.9427C37.9359 29.635 41.6846 26.017 41.6846 20.0888C41.6846 19.9145 41.641 19.6965 41.5538 19.435C41.5538 19.0863 41.5538 18.8247 41.5538 18.6504H34.8846V0.734973H52.2769V16.035C52.2769 23.0965 50.6205 28.3709 47.3077 31.8581C43.9949 35.2581 38.9385 37.2196 32.1385 37.7427ZM1.8 37.7427L0.0999999 30.9427C7.59744 29.635 11.3462 26.017 11.3462 20.0888C11.3462 19.9145 11.3026 19.6965 11.2154 19.435C11.2154 19.0863 11.2154 18.8247 11.2154 18.6504H4.54615V0.734973H21.9385V16.035C21.9385 23.0965 20.2821 28.3709 16.9692 31.8581C13.6564 35.2581 8.6 37.2196 1.8 37.7427Z" fill="#102F52"/>
</svg>
