<svg width="24" height="22" viewBox="0 0 24 22" fill="none" xmlns="http://www.w3.org/2000/svg">
<path d="M12.0321 1.44464C12.0742 1.31514 12.2574 1.31514 12.2994 1.44464L14.5846 8.47767C14.6034 8.53559 14.6574 8.5748 14.7183 8.5748H22.1133C22.2494 8.5748 22.306 8.74904 22.1959 8.82908L16.2132 13.1757C16.164 13.2115 16.1434 13.275 16.1622 13.3329L18.4473 20.3659C18.4894 20.4954 18.3412 20.6031 18.231 20.5231L12.2484 16.1764C12.1991 16.1406 12.1324 16.1406 12.0831 16.1764L6.10049 20.5231C5.99033 20.6031 5.8421 20.4954 5.88418 20.3659L8.16935 13.3329C8.18817 13.275 8.16756 13.2115 8.11829 13.1757L2.13564 8.82908C2.02547 8.74904 2.08209 8.5748 2.21826 8.5748H9.61322C9.67412 8.5748 9.72809 8.53559 9.74691 8.47767L12.0321 1.44464Z" fill="white" stroke="white" stroke-width="2.6068"/>
</svg>
