<svg width="59" height="58" viewBox="0 0 59 58"  xmlns="http://www.w3.org/2000/svg">
<path d="M57.7255 42.195C57.6558 42.0449 57.5909 41.9203 57.5306 41.8205C56.5328 40.0221 54.626 37.8148 51.8114 35.1978L51.7519 35.1379L51.7221 35.1085L51.692 35.0784H51.6618C50.3844 33.8598 49.5754 33.0404 49.2367 32.6209C48.6169 31.8218 48.478 31.013 48.8168 30.1934C49.0561 29.5742 49.9551 28.2665 51.5117 26.2685C52.3305 25.2097 52.979 24.361 53.4578 23.7217C56.9116 19.1269 58.409 16.1908 57.9496 14.9121L57.7712 14.6133C57.6513 14.4335 57.3419 14.2689 56.8434 14.1188C56.3438 13.9691 55.7052 13.9443 54.9265 14.0441L46.3029 14.1037C46.1632 14.0542 45.9637 14.0588 45.7038 14.1188C45.4443 14.1788 45.3144 14.209 45.3144 14.209L45.1644 14.284L45.0452 14.3742C44.9454 14.4338 44.8356 14.5386 44.7157 14.6885C44.5964 14.8378 44.4967 15.0131 44.417 15.2128C43.4781 17.63 42.4107 19.8773 41.2126 21.9547C40.474 23.1935 39.7956 24.267 39.1761 25.176C38.5574 26.0847 38.0384 26.7541 37.6195 27.1833C37.2 27.6129 36.8214 27.957 36.4813 28.217C36.1419 28.477 35.8827 28.5869 35.7032 28.5467C35.5234 28.5065 35.354 28.4666 35.1936 28.4268C34.9144 28.2469 34.6897 28.0022 34.5203 27.6926C34.3502 27.383 34.2357 26.9933 34.1758 26.5239C34.1162 26.0541 34.081 25.6501 34.0709 25.3103C34.0616 24.971 34.0659 24.4911 34.0861 23.8719C34.1069 23.2523 34.1162 22.8332 34.1162 22.6134C34.1162 21.8542 34.131 21.0302 34.1607 20.1413C34.1909 19.2523 34.2153 18.548 34.2358 18.0291C34.2561 17.5097 34.2656 16.9602 34.2656 16.3808C34.2656 15.8015 34.2303 15.3472 34.1607 15.0174C34.0919 14.6881 33.9863 14.3684 33.8471 14.0585C33.7071 13.7489 33.5022 13.5094 33.2333 13.3393C32.9638 13.1695 32.6288 13.0348 32.2302 12.9346C31.1721 12.695 29.8247 12.5654 28.1874 12.5453C24.4746 12.5054 22.0889 12.7453 21.0309 13.2647C20.6117 13.4842 20.2324 13.784 19.8932 14.1633C19.5338 14.603 19.4837 14.8429 19.7431 14.8823C20.9411 15.0619 21.7891 15.4915 22.2882 16.1706L22.4681 16.5305C22.608 16.7901 22.7477 17.2498 22.8875 17.9089C23.0271 18.568 23.1172 19.2971 23.1568 20.0958C23.2565 21.5543 23.2565 22.8028 23.1568 23.8414C23.0569 24.8804 22.9625 25.6893 22.8724 26.2686C22.7823 26.848 22.6476 27.3174 22.4681 27.6769C22.2882 28.0364 22.1686 28.2562 22.1086 28.336C22.0487 28.4157 21.9988 28.466 21.9591 28.4857C21.6996 28.5852 21.4298 28.6359 21.1505 28.6359C20.8708 28.6359 20.5316 28.4959 20.1324 28.2161C19.7334 27.9363 19.3192 27.552 18.8899 27.0625C18.4607 26.5729 17.9766 25.8887 17.4374 25.0099C16.8986 24.131 16.3396 23.0923 15.7607 21.8937L15.2817 21.0245C14.9823 20.4653 14.5732 19.6511 14.0542 18.5826C13.5348 17.5137 13.0758 16.4797 12.6767 15.4809C12.5172 15.0614 12.2775 14.742 11.9582 14.5223L11.8083 14.4321C11.7087 14.3523 11.5487 14.2676 11.3293 14.1774C11.1096 14.0872 10.8804 14.0226 10.6406 13.9828L2.43605 14.0424C1.59765 14.0424 1.02879 14.2325 0.729254 14.6121L0.609378 14.7917C0.549492 14.8917 0.519287 15.0514 0.519287 15.2713C0.519287 15.4911 0.579173 15.7608 0.699049 16.0802C1.89676 18.8971 3.19925 21.6137 4.60651 24.2306C6.01378 26.8474 7.23666 28.9554 8.27444 30.5526C9.31242 32.1509 10.3704 33.6593 11.4485 35.0772C12.5265 36.4956 13.2401 37.4046 13.5893 37.804C13.9388 38.204 14.2134 38.5032 14.413 38.7029L15.1617 39.4219C15.6408 39.9014 16.3443 40.4757 17.2726 41.1448C18.2011 41.8143 19.229 42.4734 20.3569 43.1231C21.485 43.7718 22.7973 44.3012 24.2947 44.7106C25.7918 45.1205 27.249 45.2849 28.6664 45.2056H32.11C32.8084 45.1452 33.3375 44.9255 33.6971 44.5462L33.8163 44.396C33.8964 44.2768 33.9714 44.0915 34.0406 43.8423C34.1107 43.5926 34.1455 43.3175 34.1455 43.0183C34.125 42.1595 34.1904 41.3854 34.3397 40.6963C34.489 40.0074 34.6591 39.488 34.8493 39.1382C35.0395 38.7887 35.2541 38.4938 35.4929 38.2547C35.7322 38.0151 35.9027 37.87 36.0028 37.82C36.1022 37.7698 36.1816 37.7356 36.2415 37.7152C36.7206 37.5554 37.2844 37.7101 37.9338 38.18C38.5827 38.6495 39.1913 39.2291 39.7606 39.918C40.3296 40.6075 41.0131 41.3811 41.8115 42.24C42.6103 43.0991 43.3088 43.7377 43.9075 44.1578L44.5061 44.5174C44.9059 44.7573 45.425 44.9771 46.0639 45.1768C46.7017 45.3764 47.2605 45.4264 47.7403 45.3266L55.4055 45.2069C56.1637 45.2069 56.7537 45.0813 57.1721 44.8321C57.5914 44.5824 57.8405 44.3073 57.9209 44.0081C58.001 43.7085 58.0053 43.3687 57.9361 42.9888C57.8651 42.6098 57.7951 42.3448 57.7255 42.195Z" fill="currentColor"/>

</svg>
