<svg width="74" height="74" viewBox="0 0 74 74" fill="none" xmlns="http://www.w3.org/2000/svg">
<path fill-rule="evenodd" clip-rule="evenodd" d="M6.82281 25.3011L7.62705 25.9008L6.78663 26.4487C3.79951 28.3959 1.8466 31.5879 1.49366 35.1859L0.718849 43.0824C0.614861 44.1414 0.968018 45.2026 1.68893 45.9925C2.41004 46.7822 3.44118 47.2366 4.51645 47.2366H5.48815L5.62707 47.7556C6.37582 50.5532 8.94903 52.624 12.0011 52.624C15.0531 52.624 17.6263 50.5532 18.375 47.7556L18.514 47.2366H51.7358L51.8747 47.7556C52.6234 50.5532 55.1966 52.624 58.2487 52.624C61.3007 52.624 63.8739 50.5532 64.6227 47.7556L64.7616 47.2366H71.5197C72.0281 47.2366 72.4756 46.9131 72.6337 46.4396C72.6658 46.3436 73.1618 44.8247 73.2772 42.7498C73.3928 40.6696 73.1225 38.0975 71.6906 35.8341C69.9514 33.0849 66.9029 31.3551 62.4784 30.7892C60.2218 30.5004 58.0504 29.8501 56.0253 28.8563C35.8163 18.9368 21.0953 20.7055 12.3705 23.8538L12.203 23.9143L7.70648 23.2249C7.06191 23.1256 6.46573 23.5649 6.36774 24.1962C6.30015 24.6313 6.48581 25.0498 6.82281 25.3011ZM5.62688 44.3945L5.48797 44.9135H4.51626C3.94991 44.9135 3.58849 44.6085 3.42947 44.4346C3.27085 44.2607 2.99893 43.8716 3.05417 43.307L3.82897 35.4103C4.14185 32.2218 6.01668 29.4266 8.84438 27.9377C9.8871 27.3887 11.1032 26.823 12.4891 26.2907L12.5469 26.2685L12.6076 26.2568C12.7397 26.2313 12.8637 26.1846 12.9756 26.1197L13.0292 26.0886L13.0874 26.0674C21.4516 23.0238 35.5344 21.3913 54.9828 30.9372C57.2406 32.0453 59.6608 32.7706 62.1776 33.0927C65.6777 33.5403 68.2734 34.8246 69.6898 37.048C71.2919 39.5626 71.0317 42.6698 70.7303 44.338L70.6264 44.9135H64.7614L64.6225 44.3945C63.8737 41.5969 61.3005 39.5259 58.2485 39.5259C55.1965 39.5259 52.6233 41.5968 51.8745 44.3945L51.7356 44.9135H18.5138L18.3749 44.3945C17.6261 41.5969 15.0529 39.5259 12.0009 39.5259C8.94884 39.5259 6.37564 41.5968 5.62688 44.3945ZM12.0011 50.3009C9.66203 50.3009 7.75246 48.4101 7.75246 46.075C7.75246 43.7399 9.66199 41.8488 12.0011 41.8488C14.3401 41.8488 16.2497 43.7399 16.2497 46.075C16.2497 48.4101 14.3401 50.3009 12.0011 50.3009ZM58.2485 50.3009C55.9095 50.3009 53.9999 48.4101 53.9999 46.075C53.9999 43.7399 55.9094 41.8488 58.2485 41.8488C60.5875 41.8488 62.4971 43.7399 62.4971 46.075C62.4971 48.4101 60.5875 50.3009 58.2485 50.3009Z" fill="url(#paint1_linear)"/>
<defs>
<linearGradient id="paint1_linear" x1="0.684538" y1="47.0074" x2="67.8383" y2="44.8552" gradientUnits="userSpaceOnUse">
<stop offset="0.104167" stop-color="#0AB5DB"/>
<stop offset="1" stop-color="#0075FF"/>
</linearGradient>
</defs>
</svg>
