<svg width="84" height="127" viewBox="0 0 84 127" fill="none" xmlns="http://www.w3.org/2000/svg">
<path opacity="0.4" fill-rule="evenodd" clip-rule="evenodd" d="M8.71549 36.3049C13.1304 36.082 18.5904 38.5894 19.0614 43.2588C19.4036 46.6514 19.2976 50.0344 19.8271 53.422C20.2505 56.1294 21.146 58.7284 22.3673 61.1946C23.5417 63.5661 25.9779 65.5848 26.6115 68.1183C27.0153 69.7326 26.7892 72.0034 26.2323 73.5824C25.555 75.5023 25.915 75.3505 27.2645 76.9615C29.9089 80.1184 32.2901 83.3557 33.9739 87.1261C36.3994 92.5568 37.9896 98.9048 37.0894 104.849C36.9749 105.604 36.8391 108.313 35.7707 108.503C34.5775 108.714 35.1355 107.165 35.1992 106.665C35.6051 103.471 35.9659 100.68 35.4762 97.4366C33.5865 84.9231 24.3602 76.6784 18.3526 66.0579C18.0224 65.5102 17.3252 64.206 16.8404 63.3456C16.0751 61.9872 15.3057 59.4025 14.2696 58.3952C12.3184 56.4977 14.1123 60.3124 14.4925 61.0407C14.9732 61.9619 15.5021 62.9409 15.9947 63.7481C18.2486 67.4897 20.7645 71.5741 23.0924 75.431C13.0245 77.663 5.93408 65.8862 3.23232 58.1437C1.00628 51.7648 -1.65708 36.8507 8.71549 36.3049Z" fill="url(#paint0_linear)"/>
<path opacity="0.6" fill-rule="evenodd" clip-rule="evenodd" d="M67.8885 24.459C60.5081 25.0288 55.7701 29.7672 53.5645 36.3948C52.3758 39.9665 52.2395 43.6356 51.5789 47.3061C50.5852 52.8283 48.4471 57.0132 44.2684 60.9474C42.9742 62.1659 42.0204 63.4169 41.3424 64.7554C39.9965 66.0917 38.8249 67.6039 37.9642 69.4528C36.8646 71.8139 36.5535 74.6468 37.823 77.0008C38.1643 77.6336 39.0158 78.904 39.8983 79.4812C36.5943 86.3278 34.7776 93.8263 34.9824 101.315C35.1062 105.836 35.333 110.359 35.5976 114.874C35.6688 116.086 36.0746 118.088 36.6841 116.055C37.2419 114.195 36.5424 111.276 36.4777 109.333C36.1627 99.868 35.8935 91.2623 39.8978 82.4195C40.3177 81.4927 40.7629 80.5733 41.2266 79.6613C41.2538 79.6459 41.2791 79.6274 41.3046 79.6094C41.3223 79.6226 41.3384 79.6369 41.356 79.6499C41.3857 79.5985 41.4262 79.5373 41.4735 79.469C41.6065 79.3355 41.7226 79.1668 41.833 78.9784C42.1882 78.4995 42.5902 77.9369 42.5924 77.6289C42.5924 77.6265 42.591 77.6228 42.591 77.6204C45.0699 73.6832 47.9091 69.9629 50.8093 66.3155C50.7875 66.342 53.955 62.1458 53.4652 64.4664C53.2292 65.5847 50.8993 67.7144 49.9583 68.8989C47.8768 71.5342 45.4324 74.8733 43.4012 78.1022C43.1278 78.255 42.7417 79.0054 42.4624 79.5643C42.3082 79.8475 42.1643 80.133 42.0229 80.3818C49.2202 82.6955 54.819 78.0349 58.6368 72.6141C58.6414 72.6078 58.6455 72.6012 58.6498 72.5948C59.8116 71.0969 61.0017 69.6096 62.4885 68.4256C64.9691 66.4498 67.6255 66.1012 70.5502 65.1289C78.5259 62.4774 81.9169 52.4201 82.9939 44.9576C84.209 36.5387 78.2654 23.6289 67.8885 24.459Z" fill="url(#paint1_linear)"/>
<path fill-rule="evenodd" clip-rule="evenodd" d="M53.3098 0.88255C45.735 8.55321 42.0755 19.1925 39.1777 29.1946C35.9414 40.3658 33.8037 51.7094 33.7216 63.3241C33.6679 70.955 33.4545 78.6336 33.9123 86.2556C34.0747 88.9626 34.352 91.6743 34.793 94.3522C34.8293 94.5722 35.8159 100.551 36.7599 99.1581C37.2967 98.3658 35.7486 92.9556 35.6316 92.0545C34.9735 86.9791 34.8206 81.8663 34.8527 76.7542C34.9055 68.3373 34.6504 59.9636 35.5272 51.5776C35.6579 50.3256 35.7613 49.0105 36.067 47.7856C36.3915 46.4834 35.9782 47.0519 37.0353 46.5364C38.0625 46.0352 39.3318 46.1068 40.3975 45.478C44.6249 42.9839 46.7874 36.5773 48.4705 32.3736C50.3956 27.5666 51.5656 22.4406 52.5001 17.3818C53.1862 13.665 53.6769 9.97085 53.9545 6.2062C54.042 5.01972 54.0472 3.77897 54.2868 2.61233C54.3513 2.29764 54.6753 1.74094 54.6636 1.46225C54.6387 0.872431 54.2728 0.525545 54.2428 0.0299299C53.9257 0.307581 53.6144 0.591992 53.3098 0.88255Z" fill="url(#paint2_linear)"/>
<path fill-rule="evenodd" clip-rule="evenodd" d="M11.9502 103.096C11.9502 115.781 22.5193 126.065 35.5569 126.065C48.5945 126.065 59.1635 115.781 59.1635 103.096" fill="url(#paint3_linear)"/>
<path fill-rule="evenodd" clip-rule="evenodd" d="M51.7911 82.972C57.6336 82.5529 64.1583 87.139 66.9765 91.9116C69.2484 95.7595 68.8657 100.812 67.4624 104.9C66.5227 107.637 64.4719 111.54 61.0518 111.578C56.7729 111.625 56.5665 106.48 56.4838 103.471C56.3738 99.4721 55.8544 95.9882 52.6157 93.2622C52.2158 92.9258 51.7962 92.6108 51.3766 92.2959C51.0042 92.0163 50.6318 91.7367 50.2733 91.4422C50.216 91.3952 50.1584 91.3481 50.1006 91.3009C48.9554 90.3643 47.7525 89.3806 47.6061 87.8368C47.3938 85.5996 48.6917 85.197 50.6734 85.6126C50.7373 85.626 50.911 85.6901 51.1472 85.7772C52.1592 86.1504 54.3188 86.9469 53.9103 85.9948C53.7565 85.636 53.1946 85.3518 52.4855 85.1388C50.6505 84.9446 48.4622 84.7194 47.8329 84.8539C41.0433 86.3032 38.3999 95.454 37.6978 101.268C37.6221 101.895 37.5608 102.525 37.5074 103.156H36.26C36.3466 101.633 36.4609 100.113 36.7225 98.6071C37.7232 92.8482 40.852 84.3899 47.7142 83.4552C47.9673 83.4203 48.8986 83.4145 50.0266 83.4788C50.5613 83.1882 51.1601 83.0124 51.7911 82.972Z" fill="url(#paint4_linear)"/>
<defs>
<linearGradient id="paint0_linear" x1="37.5133" y1="101.988" x2="7.1584" y2="105.02" gradientUnits="userSpaceOnUse">
<stop offset="0.104167" stop-color="#0AB5DB"/>
<stop offset="1" stop-color="#0075FF"/>
</linearGradient>
<linearGradient id="paint1_linear" x1="35.0492" y1="109.104" x2="83.4133" y2="108.606" gradientUnits="userSpaceOnUse">
<stop offset="0.104167" stop-color="#0AB5DB"/>
<stop offset="1" stop-color="#0075FF"/>
</linearGradient>
<linearGradient id="paint2_linear" x1="34.4183" y1="91.4561" x2="67.1369" y2="86.5029" gradientUnits="userSpaceOnUse">
<stop offset="0.104167" stop-color="#0AB5DB"/>
<stop offset="1" stop-color="#0075FF"/>
</linearGradient>
<linearGradient id="paint3_linear" x1="12.0309" y1="124.123" x2="59.348" y2="122.198" gradientUnits="userSpaceOnUse">
<stop stop-color="#FFAF22"/>
<stop offset="1" stop-color="#FE8E68"/>
</linearGradient>
<linearGradient id="paint4_linear" x1="36.3153" y1="109.157" x2="68.7617" y2="108.432" gradientUnits="userSpaceOnUse">
<stop offset="0.104167" stop-color="#0AB5DB"/>
<stop offset="1" stop-color="#0075FF"/>
</linearGradient>
</defs>
</svg>
