<svg width="68" height="68" viewBox="0 0 68 68" fill="none" xmlns="http://www.w3.org/2000/svg">
<path fill-rule="evenodd" clip-rule="evenodd" d="M1.41676 56.9668H32.5833C33.1996 56.9668 33.7001 57.4672 33.7002 58.0836C33.7002 58.6998 33.1998 59.2002 32.5835 59.2002H1.41676C0.800445 59.2002 0.300049 58.6998 0.300049 58.0835C0.300049 57.4672 0.800445 56.9668 1.41676 56.9668Z" fill="url(#paint0_linear)"/>
<path fill-rule="evenodd" clip-rule="evenodd" d="M41.5753 16.9465C45.9879 14.9017 50.295 13.8045 55.1455 13.7845C55.4684 13.7832 55.7825 13.7854 56.0878 13.7909C56.354 13.7956 56.5226 13.9894 56.5664 14.1851C56.6098 14.3787 56.543 14.6207 56.3177 14.746C55.0891 15.4297 54.4367 16.0587 54.3788 16.1148C53.9476 16.5453 53.9432 17.24 54.3695 17.6792C54.5841 17.9014 54.8744 18.0143 55.166 18.0131C55.4414 18.012 55.7182 17.9085 55.9327 17.703C56.0699 17.5717 58.6291 15.1816 63.6022 15.1611C63.7061 15.1606 63.8278 15.1794 63.9437 15.2426C64.3856 15.4834 64.722 15.7427 64.9514 16.0101C65.1802 16.2767 65.3163 16.5685 65.3175 16.8654C65.3193 17.2941 65.1004 17.7369 64.7617 18.1737C64.4182 18.6169 63.922 19.0914 63.3028 19.59C62.0633 20.5881 60.2916 21.7132 58.1501 22.9072C53.8644 25.2966 48.057 27.9839 41.9608 30.5051C35.8635 33.0267 29.4694 35.3854 24.0077 37.1167C21.2769 37.9823 18.7763 38.692 16.6606 39.1868C14.5504 39.6804 12.8044 39.9648 11.5908 39.9698L11.5748 39.9698C9.993 39.9764 5.73851 39.9939 3.7215 39.636L3.06647 39.5198L3.58723 39.1058C3.76957 38.9608 3.9793 38.8044 4.21106 38.6401C5.17483 37.9569 6.51937 37.1372 7.85777 36.4379C8.13968 36.2894 8.34226 36.0331 8.42089 35.7259C8.49946 35.4189 8.44259 35.0923 8.26652 34.8313L5.96999 31.4087L3.78051 28.1457C3.38861 27.5616 3.46257 26.7823 3.95734 26.2824C4.40565 25.8294 5.0938 25.7148 5.66472 25.998L7.11152 26.7156L15.2816 30.7682C15.589 30.9206 15.9537 30.9209 16.2646 30.7679L16.2699 30.7653L16.2736 30.7634C16.4677 30.6629 23.7852 26.8779 26.3713 25.4929C26.4976 25.4252 26.5069 25.2456 26.3684 25.1677L9.75904 15.831L9.07127 15.4444L12.2338 12.2513C12.8271 11.6524 13.7004 11.4259 14.5099 11.6612L34.4611 17.4602L37.6268 18.4933C38.0747 18.6394 38.5583 18.593 38.9547 18.3563C39.0477 18.3008 39.1403 18.245 39.2321 18.1898L39.2322 18.1898L39.2323 18.1897C39.6511 17.9378 40.0513 17.6972 40.3776 17.5399C40.7506 17.3601 41.1206 17.1817 41.5635 16.9523L41.5753 16.9465ZM5.25919 34.331L5.74339 35.0522L5.46121 35.2116C5.29426 35.3059 5.13306 35.3985 4.97742 35.4894C2.81434 36.7535 1.72408 37.6968 1.17523 38.3746C0.883457 38.7349 0.748845 39.0152 0.684705 39.2244C0.621208 39.4315 0.621432 39.5844 0.62197 39.715C0.624247 40.2673 0.816043 40.6747 1.20347 40.9967C1.60688 41.332 2.24123 41.5897 3.15337 41.776C4.97821 42.1487 7.7622 42.2084 11.5999 42.1925C12.3482 42.1895 13.5523 42.0108 15.1266 41.673C16.6947 41.3365 18.611 40.8464 20.7745 40.2298C25.1011 38.9966 30.4064 37.2602 35.8742 35.2427C36.1931 35.125 36.5532 35.221 36.7701 35.4845L48.8027 50.0983L48.8039 50.0997C49.0189 50.3641 49.3379 50.5052 49.6622 50.5039C49.8299 50.5032 49.9979 50.4652 50.1639 50.3812L55.7856 47.5354C56.2477 47.3005 56.487 46.7763 56.3604 46.2738L56.36 46.272L51.9534 29.2831C51.8563 28.9086 52.0428 28.525 52.3856 28.3611C56.7424 26.2778 60.5562 24.1604 63.2747 22.1628C64.6345 21.1637 65.7093 20.2024 66.4406 19.2989C67.1753 18.3911 67.5375 17.5737 67.5345 16.8563C67.5314 16.0898 67.2541 14.7791 65.6038 13.6512C63.9334 12.5094 60.8324 11.5383 55.1364 11.5618C48.5507 11.5889 40.7153 14.7226 38.4006 15.7148C37.9065 15.9265 37.3521 15.9726 36.8282 15.8279L13.5322 9.39522C13.499 9.38535 13.4643 9.37485 13.4289 9.36417C13.1704 9.28608 12.871 9.19646 12.5977 9.16424C12.3061 9.12985 12.1523 9.17455 12.0861 9.2405L6.47605 14.9089C6.23282 15.1547 6.11692 15.4995 6.16489 15.8437C6.21298 16.1887 6.41869 16.4902 6.71849 16.66L9.21324 18.0749L20.7481 24.617C21.861 25.1677 22.0006 25.5004 20.7147 26.0266L16.7975 28.0097C16.1502 28.3373 15.3863 28.3404 14.7364 28.018L7.64997 24.5019L4.97626 23.1753C4.54642 22.9633 4.03321 23.0483 3.69872 23.3886L3.69801 23.3893L0.892786 26.2237C0.519077 26.6013 0.464044 27.1886 0.758528 27.6273L5.25919 34.331ZM53.99 45.9531L49.9519 47.9973L39.3096 35.0739C38.9623 34.6522 39.1306 34.0152 39.6387 33.8181C42.8068 32.5885 45.9657 31.283 48.9595 29.9441C49.4129 29.7413 49.9411 29.9952 50.0636 30.4779L53.99 45.9531Z" fill="url(#paint1_linear)"/>
<defs>
<linearGradient id="paint0_linear" x1="0.357143" y1="59.0114" x2="31.1857" y2="49.8873" gradientUnits="userSpaceOnUse">
<stop offset="0.104167" stop-color="#0AB5DB"/>
<stop offset="1" stop-color="#0075FF"/>
</linearGradient>
<linearGradient id="paint1_linear" x1="0.684538" y1="47.0074" x2="67.8383" y2="44.8552" gradientUnits="userSpaceOnUse">
<stop offset="0.104167" stop-color="#0AB5DB"/>
<stop offset="1" stop-color="#0075FF"/>
</linearGradient>
</defs>
</svg>
