<svg width="24" height="24" viewBox="0 0 24 24" fill="none" xmlns="http://www.w3.org/2000/svg">
<path d="M5.44119 15.6241C7.61782 18.218 10.238 20.2603 13.2286 21.7053C14.3672 22.2433 15.8899 22.8815 17.5864 22.9909C17.6916 22.9954 17.7922 23 17.8973 23C19.036 23 19.9505 22.608 20.6959 21.8011C20.7004 21.7965 20.7096 21.7874 20.7142 21.7783C20.9794 21.4592 21.2812 21.172 21.5967 20.8666C21.8116 20.6614 22.0311 20.4472 22.2415 20.2283C23.2154 19.2163 23.2154 17.9308 22.2323 16.9507L19.4841 14.2109C19.0177 13.7277 18.4598 13.4724 17.8745 13.4724C17.2892 13.4724 16.7267 13.7277 16.2466 14.2064L14.6095 15.8384C14.4586 15.7518 14.3032 15.6743 14.1568 15.6013C13.9739 15.5102 13.8047 15.4235 13.6538 15.3278C12.1631 14.3842 10.8096 13.1533 9.5155 11.5715C8.8616 10.7464 8.42262 10.0535 8.11625 9.34687C8.54608 8.95939 8.94848 8.55367 9.33717 8.15707C9.47435 8.01575 9.61611 7.87443 9.75786 7.73311C10.2517 7.24078 10.5169 6.67095 10.5169 6.092C10.5169 5.51305 10.2563 4.94322 9.75786 4.45089L8.39518 3.09242C8.23514 2.93286 8.08424 2.77787 7.92876 2.61832C7.62696 2.30833 7.31144 1.98923 7.0005 1.70203C6.5295 1.24161 5.9762 1 5.39089 1C4.81015 1 4.25228 1.24161 3.76299 1.70659L2.05279 3.41152C1.43089 4.0315 1.07879 4.78367 1.00563 5.65437C0.918745 6.74389 1.11995 7.90178 1.64124 9.30128C2.44147 11.4666 3.64867 13.477 5.44119 15.6241ZM2.12138 5.7501C2.17625 5.1438 2.40946 4.6378 2.84844 4.20017L4.5495 2.50435C4.81472 2.24907 5.10738 2.11687 5.39089 2.11687C5.66983 2.11687 5.95334 2.24907 6.21398 2.51347C6.52036 2.7961 6.80844 3.09242 7.11939 3.40696C7.27486 3.56651 7.43491 3.72607 7.59495 3.89018L8.95763 5.24865C9.24114 5.53129 9.38747 5.81848 9.38747 6.10112C9.38747 6.38375 9.24114 6.67095 8.95763 6.95359C8.81588 7.0949 8.67412 7.24078 8.53236 7.3821C8.1071 7.81061 7.70927 8.21633 7.27029 8.60381C7.26114 8.61293 7.25657 8.61749 7.24742 8.62661C6.86789 9.00497 6.92733 9.36511 7.01879 9.63862C7.02336 9.6523 7.02793 9.66142 7.03251 9.67509C7.38461 10.5184 7.87389 11.3208 8.63754 12.2781C10.0094 13.9648 11.4543 15.2731 13.0457 16.2806C13.2423 16.4082 13.4526 16.5085 13.6493 16.6088C13.8322 16.7 14.0014 16.7866 14.1523 16.8823C14.1706 16.8914 14.1843 16.9005 14.2026 16.9097C14.3535 16.9872 14.4998 17.0236 14.6461 17.0236C15.0119 17.0236 15.2497 16.7911 15.3275 16.7136L17.0377 15.0087C17.3029 14.7443 17.591 14.603 17.8745 14.603C18.222 14.603 18.5055 14.8172 18.6839 15.0087L21.4412 17.753C21.99 18.3 21.9854 18.8927 21.4275 19.4716C21.2354 19.6768 21.0342 19.8728 20.8193 20.0779C20.4992 20.3879 20.1654 20.707 19.8636 21.0671C19.3378 21.6324 18.7113 21.8968 17.9019 21.8968C17.8242 21.8968 17.7419 21.8923 17.6641 21.8877C16.1643 21.792 14.7696 21.2085 13.7224 20.7116C10.8782 19.3394 8.38146 17.3929 6.31001 14.9221C4.60438 12.8753 3.45662 10.9697 2.69754 8.92748C2.22655 7.67385 2.04821 6.66639 2.12138 5.7501Z" fill="url(#paint0_linear)" stroke="url(#paint1_linear)" stroke-width="0.5"/>
<defs>
<linearGradient id="paint0_linear" x1="1.02366" y1="21.1398" x2="23.0845" y2="20.7035" gradientUnits="userSpaceOnUse">
<stop offset="0.104167" stop-color="#0AB5DB"/>
<stop offset="1" stop-color="#0075FF"/>
</linearGradient>
<linearGradient id="paint1_linear" x1="1.02366" y1="21.1398" x2="23.0845" y2="20.7035" gradientUnits="userSpaceOnUse">
<stop offset="0.104167" stop-color="#0AB5DB"/>
<stop offset="1" stop-color="#0075FF"/>
</linearGradient>
</defs>
</svg>
