<svg width="31" height="22" viewBox="0 0 31 22" fill="none" xmlns="http://www.w3.org/2000/svg">
<path fill-rule="evenodd" clip-rule="evenodd" d="M27.6292 0.672941C28.957 1.03529 30.004 2.09647 30.3615 3.44235C31.0254 5.90118 30.9999 11.0259 30.9999 11.0259C30.9999 11.0259 30.9999 16.1247 30.3615 18.5835C30.004 19.9294 28.957 20.9906 27.6292 21.3529C25.2034 22 15.4999 22 15.4999 22C15.4999 22 5.82205 22 3.37066 21.3271C2.04282 20.9647 0.995877 19.9035 0.638383 18.5576C0 16.1247 0 11 0 11C0 11 0 5.90118 0.638383 3.44235C0.995877 2.09647 2.06836 1.00941 3.37066 0.647059C5.79652 0 15.4999 0 15.4999 0C15.4999 0 25.2034 0 27.6292 0.672941ZM12.4102 6.28955L20.4793 11.0001L12.4102 15.7107V6.28955Z" fill="url(#paint0_linear)"/>
<defs>
<linearGradient id="paint0_linear" x1="0.0529916" y1="20.1398" x2="31.1484" y2="19.2726" gradientUnits="userSpaceOnUse">
<stop stop-color="#FF3DA6"/>
<stop offset="1" stop-color="#FF3D57"/>
</linearGradient>
</defs>
</svg>
