<svg width="170" height="31" viewBox="0 0 170 31" fill="none" xmlns="http://www.w3.org/2000/svg">
<path fill-rule="evenodd" clip-rule="evenodd" d="M5.96434 0C4.02484 0 2.54555 0.944708 1.54562 2.54919C0.54604 4.15309 0.0254277 6.41613 0.000908638 9.05448C-0.048131 14.3313 1.88725 21.1142 5.95351 27.1417L5.97643 27.1294C2.26487 18.1445 1.62533 12.089 2.29132 8.28077C2.95745 4.47172 4.9281 2.9147 6.43487 2.9147C6.99425 2.9147 7.5772 3.0936 8.1954 3.36292C8.66154 3.56598 9.14683 3.82004 9.6566 4.08691L9.65661 4.08692C9.823 4.17403 9.992 4.2625 10.1638 4.35101C11.5593 5.06999 13.1367 5.79022 14.983 5.79022C16.8293 5.79022 18.4328 5.07002 19.8544 4.35105C20.0294 4.26255 20.2016 4.17408 20.3712 4.08698L20.3712 4.08696C20.8907 3.82008 21.3852 3.56602 21.8588 3.36294C22.4868 3.09361 23.0763 2.9147 23.6357 2.9147C24.7564 2.9147 25.7848 3.30546 26.5335 4.29825C27.2826 5.29166 27.7529 6.88951 27.7529 9.30619L27.7778 9.31172C28.4523 7.86465 28.7349 5.53818 28.1906 3.57292C27.9185 2.59007 27.4392 1.69674 26.6979 1.04907C25.9563 0.401234 24.9535 0 23.6357 0C22.0737 0 20.8442 0.680167 19.5805 1.37923L19.4599 1.44591C18.1528 2.16805 16.7961 2.88856 14.983 2.88856C13.1697 2.88856 11.7215 2.16794 10.3228 1.44574L10.1938 1.37904C8.84155 0.680013 7.52612 0 5.96434 0ZM41.0688 6.11058C39.4018 6.11058 37.7832 6.47888 36.2131 7.21548L35.1664 5.12199C36.8334 4.30786 38.8106 3.90079 41.0979 3.90079C43.2011 3.90079 45.0087 4.32724 46.5206 5.18014C48.0423 6.03304 49.1956 7.2494 49.9807 8.8292C50.7657 10.409 51.1583 12.2699 51.1583 14.4118C51.1583 18.056 50.2763 20.857 48.5123 22.8148C46.7484 24.7726 44.2091 25.7515 40.8944 25.7515C38.6943 25.7515 36.8383 25.4753 35.3263 24.9229V22.7567C36.1307 22.9602 36.9497 23.1444 37.7832 23.3091C38.6167 23.4739 39.5133 23.5563 40.4728 23.5563C43.0993 23.5563 45.0813 22.8584 46.4189 21.4628C47.7564 20.0574 48.4639 18.0367 48.5414 15.4004H38.0885V13.1906H48.5123C48.2991 10.9711 47.5334 9.23627 46.2153 7.98599C44.9069 6.73572 43.1914 6.11058 41.0688 6.11058ZM61.6623 25.7515C59.3556 25.7515 57.5674 25.044 56.2978 23.629C55.0378 22.2042 54.4078 20.1931 54.4078 17.5957C54.4078 14.9304 55.0475 12.8708 56.3268 11.417C57.6159 9.96317 59.4477 9.23627 61.8222 9.23627C62.5879 9.23627 63.3536 9.31865 64.1193 9.48341C64.8849 9.64818 65.4858 9.84202 65.922 10.0649L65.1805 12.1148C64.6475 11.9016 64.0659 11.7271 63.436 11.5914C62.806 11.4461 62.2487 11.3734 61.7641 11.3734C58.5269 11.3734 56.9084 13.4378 56.9084 17.5666C56.9084 19.5244 57.3009 21.0267 58.086 22.0734C58.8807 23.1201 60.0534 23.6435 61.6042 23.6435C62.932 23.6435 64.2937 23.3576 65.6894 22.7858V24.9229C64.6232 25.4753 63.2809 25.7515 61.6623 25.7515ZM69.1861 25.4608H71.5994V11.6205H80.1187V25.4608H82.5611V9.52703H69.1861V25.4608ZM97.1794 25.4608L96.6997 23.1928H96.5834C95.7886 24.1911 94.9939 24.8696 94.1991 25.2282C93.4141 25.5771 92.4303 25.7515 91.2479 25.7515C89.6681 25.7515 88.4275 25.3445 87.5261 24.5303C86.6345 23.7162 86.1886 22.558 86.1886 21.0557C86.1886 17.838 88.7619 16.1515 93.9084 15.9965L96.6124 15.9092V14.9207C96.6124 13.6704 96.3411 12.7496 95.7983 12.1584C95.2653 11.5575 94.4075 11.2571 93.2251 11.2571C91.8973 11.2571 90.395 11.6641 88.7183 12.4783L87.9768 10.6319C88.7619 10.2055 89.6196 9.8711 90.5501 9.6288C91.4902 9.38649 92.4303 9.26534 93.3705 9.26534C95.2701 9.26534 96.6754 9.68695 97.5865 10.5302C98.5072 11.3734 98.9676 12.7254 98.9676 14.5863V25.4608H97.1794ZM91.7277 23.7598C93.2299 23.7598 94.4075 23.3479 95.2604 22.5241C96.123 21.7003 96.5543 20.5469 96.5543 19.064V17.6247L94.141 17.7265C92.2219 17.7944 90.836 18.0948 89.9831 18.6279C89.1399 19.1512 88.7183 19.9702 88.7183 21.0848C88.7183 21.9571 88.9799 22.621 89.5033 23.0765C90.0364 23.532 90.7778 23.7598 91.7277 23.7598ZM118.427 30.9998H120.782V23.2219H118.093V4.20609H108.541C108.425 7.18155 107.834 10.4672 106.768 14.0629C105.711 17.6587 104.437 20.7117 102.944 23.2219H101.301V30.9998H103.656V25.4608H118.427V30.9998ZM115.621 6.43042V23.2219H105.532C106.86 20.954 108.023 18.1772 109.021 14.8916C110.019 11.5963 110.606 8.7759 110.78 6.43042H115.621ZM130.443 25.7515C128.088 25.7515 126.227 25.0343 124.861 23.5999C123.504 22.1655 122.825 20.1738 122.825 17.6247C122.825 15.0563 123.455 13.0162 124.715 11.5042C125.985 9.99225 127.686 9.23627 129.818 9.23627C131.815 9.23627 133.394 9.89533 134.557 11.2134C135.72 12.5219 136.302 14.2519 136.302 16.4035V17.93H125.326C125.374 19.8006 125.844 21.2205 126.736 22.1897C127.637 23.1589 128.902 23.6435 130.53 23.6435C132.246 23.6435 133.942 23.2849 135.619 22.5677V24.7193C134.766 25.0876 133.957 25.3493 133.191 25.5044C132.435 25.6691 131.519 25.7515 130.443 25.7515ZM129.789 11.2571C128.51 11.2571 127.487 11.6738 126.721 12.5073C125.965 13.3409 125.52 14.4942 125.384 15.9674H133.714C133.714 14.4457 133.375 13.2827 132.697 12.4783C132.018 11.6641 131.049 11.2571 129.789 11.2571ZM142.546 16.2V9.52703H140.133V25.4608H142.546V18.279H151.473V25.4608H153.886V9.52703H151.473V16.2H142.546ZM169.449 11.5914H164.274V25.4608H161.861V11.5914H156.743V9.52703H169.449V11.5914Z" fill="url(#paint0_linear)"/>
<defs>
<linearGradient id="paint0_linear" x1="0.289658" y1="28.3786" x2="168.425" y2="10.1901" gradientUnits="userSpaceOnUse">
<stop offset="0.104167" stop-color="#0AB5DB"/>
<stop offset="1" stop-color="#0075FF"/>
</linearGradient>
</defs>
</svg>
